<svg data-name="图层 1" xmlns="http://www.w3.org/2000/svg" viewBox="0 0 848.9 187.3"><path fill="#FFF" d="M43.7 41.9l-7.9-6c-2.5-1.9-3-4.2-.6-6.3s6.1-4.3 9.1-6.6a61.8 61.8 0 0 0 7.8-6.6c3.7-4.2 7.2-5.5 11.3-3.5 6.3 3 9.7 8 8.3 13.1-.9 3.4-2.5 6.6-3.8 9.9l1.4 1c5.5-7.2 11.2-14.2 16.5-21.5 2.6-3.6 4.2-8.1 7.3-11.3S98.9 0 101.8 0c5.3 0 6.3 2.2 6.5 9.4 4.3-.4 8.7-1 13.1-1.1s6 2.3 3.9 6.4a12.6 12.6 0 0 1-13.6 6.4 20.6 20.6 0 0 0-7.4-.5c-1.5.2-2.9 1.8-4.1 3.1s.6 2.3 1.1 2.3 3.9.7 5-.2c3.1-2.6 6.1-2.7 8.9-.3s4.6 4.1 4.3 5.7c-.7 3.4-2.9 6.8-7.3 7a16.4 16.4 0 0 0-7.2 1.5 21.3 21.3 0 0 0 4.6 1.3 71.2 71.2 0 0 0 8 .1c5.4.1 10.1 1.3 13.2 6.3 1.4 2.2 3.7 3.9 5.7 5.6 3.8 3.4 4.7 7.4 3.5 12.2a41.1 41.1 0 0 0-1.7 9.8c-.1 5.1-1.8 9.4-4 14.1s-2.5 11.6-3.6 17.4c-.3 1.8-.3 3.9-1.3 5.3-3.9 5.5-3.2 11.1-.5 16.5s1.3 6.9-1 10.1-4.4 6.5-7.1 10.6c9.4 1.1 17 5.3 25.6 1.7 4-1.7 9.9 2.1 11 7.6s.2 9.5-.2 14.3c-.1 1-2.3 2.4-3.5 2.5a33.2 33.2 0 0 1-9.4-.7c-20.5-4.8-41.2-6.9-62.2-5.3-6.6.6-13.3.1-19.5.8s-14.6.7-21.8 2.2c-.6.1-1.2.5-1.9.6-9.8.8-19.7 1.9-29.6 2.3-5 .2-9.2-3.4-9.3-6.6s3.4-8.2 9.1-8.9 11.2-.9 16.9-1.4 6.4-1.5 4.2-6.7a76.5 76.5 0 0 1-3-7.4c-1.6-5.5-2.8-11-4.3-17.5-4-1.5-4.7-3.4-3.6-9.6.6-3.1.1-6.4.1-9.7s-.7-3.8-.1-5.4c2.7-7.7.9-15.1-1.1-22.6-2.6-9.8-4.3-19.6-2.2-30 .8-3.8-1.7-8.6-3.5-12.6s-1.9-6.7 2.7-10.6 7-1.8 9.2 1 5.8 8.7 8.5 13.2c1.3 2.2 2.2 4.6 3.4 6.8zm-6.8 86.6c2.2 6 4.2 11.9 6.3 17.8 2.7 7.5 4.2 8 11.2 4.4 3.6-1.8 3.3-4.1.8-6.1a29 29 0 0 0-7-3.6c-4.9-2-6.2-5.6-3.4-10.1s6.9-6.3 11.6-6.6c18.1-1.5 36.1-2.9 54.2-3.9 5-.3 6.1-2.8 6.1-5.7-3.5.5-6.9 1.1-10.4 1.4s-8.2.5-12.4.9-6.5 1.3-9.8 1.3c-9.5 0-8.1 1.6-10.7-8.3a24.4 24.4 0 0 0-1-2.4c.5 7.8-5.5 8.5-10.6 10.5-8.6 3.4-17 7.1-24.9 10.4zM101 90.9c1.8 1.9 2.8 2.9 3.7 4s2.5 4.7.3 7.1-4.4 2.8-6.9.5-2.4-1.7-3.6-2.6c-5-3.3-9.5-1-10.4 6.3 8.2-.7 16.2-1.3 24.2-2.2 4-.5 7.3-.3 8.9 4.5 1-2.9 1.8-5.2 2.4-7.5s.2-2.7-.4-3.1c-5.1-3.6-10.2-7.3-18.2-7zm-1.4 57.5c3.4.1 8-4.8 8-8.9s-3.2-4-5.9-4.3c-5.9-.5-9.5 2.1-9.8 6.6s1.6 6.3 7.7 6.6zM89.3 68.6l.6-1.6a14.9 14.9 0 0 0-3.2-2.4c-4.7-2.2-15.6 1.4-18.3 6a4 4 0 0 0 0 3.2c1.4 2.2 3.1 4.1 4.7 6.2l1.9-.8c.5-2.9 1.4-5.7 1.5-8.5s1.7-4.6 5-3.7 5.2 1.1 7.8 1.6zm-38.9-1.1a86.2 86.2 0 0 1-9.8 4.4c-5.5 1.8-6 2.6-4 8.5a16.5 16.5 0 0 0 13.8-12.9zm25.8-16.6c5.6 1.1 9.4.3 12.5-2.7.8-.8 1.2-3.1.7-3.7s-3.2-1.8-4-1.3c-3 2.1-5.6 4.6-9.2 7.7zm40.7 3.9c-8.9-.5-12.2.9-13.2 5.2 5.5 1.9 8.9-1.4 13.2-5.2zm.2 21.7l-1.1 1.9c2.2 1.7 4.2 3.7 6.6 5 .4.2 2.3-2.3 4.6-4.6zm-44.3 70.4c.8-2.4 1.7-3.7 1.4-4.5a38.2 38.2 0 0 0-3.5-4.7c-.9 1.1-2.6 2.6-2.4 3.2s2.4 3.3 4.5 6zm-27.7-45.4l-.4-3.1c-2.2.5-4.5.8-6.6 1.5-.2.1.2 2.1.3 3.3zm19.2-9.3l-.8 1.4 8.7 6.1c-1.7-3.7-3.4-7.6-7.9-7.5zm62.2-22.6l2.1-.6c-.9-2.8-1.9-5.6-2.9-8.4l-2 .7c.9 2.8 1.8 5.5 2.8 8.3zM254.3 116.6c-4.1 1.1-6.7 3.5-6.7 8.3.1 9.5.1 18.9.1 28.4 0 3 .4 6.3-3.6 7.3s-6.7 1.2-10.1-1.7c-6.4-5.6-6.8-12.8-4.1-19.1 5.4-12.7 5.3-26 6.6-39.1a40.3 40.3 0 0 1 .5-5c1.1-4.9.9-8.5-5.1-10.4-1.7-.5-2.1-5-3.2-7.9-3.8 1.9-7.2 4.7-7.1 10.5 0 2.7-1.4 5.4-2.2 8.1a12.3 12.3 0 0 0-.7 5.9c1.8-1.8 3.7-3.6 5.4-5.6s3.7-5.7 7.5-3.3 1 5.1-.7 7.8c5.4 1.6 4.5 5 3.2 8.8s-1.5 6.4-2.4 9.6a6.8 6.8 0 0 1-1.1 3.2l-17.7 19.5c-.7.7-1.8 1.4-1.9 2.2-.8 7.2-6.5 10.8-11.1 14.7-3.1 2.6-7.9 3-12 4.3a1.3 1.3 0 0 1-.9-.1c-2.3-4.5-4.7-9-6.7-13.6-1.2-2.9.6-4.8 2.5-7.3 6.2-7.8 13.3-15.4 13-26.6-.2-7-2.2-9-9.2-10.4-1.5-.3-3-2.1-3.8-3.7-2-3.7-2.7-8-7.8-9.6-2.7-.7-1.7-7.2 1.2-8.5 5.3-2.3 10.9-4.1 16-6.9 2.4-1.4 5.2-4.3 5.6-6.8 1.5-10.1 2.1-20.3 3.2-30.4a83.1 83.1 0 0 1 2.1-13.1c1-3.6 6.3-6.4 10.2-5.8s5.3 4.4 5.3 7.8-.9 9.3-1.2 13.9a79.4 79.4 0 0 0-.2 12.9c.1 1.2 3 3.5 4.1 3.2 5.3-1.3 10.4-1.2 13.6 3.4s.8 9.5-2.4 13.9l7.1-4c4.6-2.5 8.8-5.6 14.7-5 2.5.3 6.2-2 7.7-4.2s-2.7-11.6-6.7-14a11 11 0 0 1-.2-19c4.7-3 9.8-2.1 13.1 2.5 5.7 8 11.3 16 16.9 24.1 1.8 2.6 3.9 3.5 7.2 2.7a58.1 58.1 0 0 1 11.8-1.9c3.3-.1 7.5.6 7.8 4.5s-1.6 6-3.6 7.9-7.1 4.9-10.3 7.8-2.7 6.5 1.8 7.1 7.1 4.1 8.3 8.5a73.4 73.4 0 0 0 2.1 7.7c1.6 4 .9 7.3-1.9 10.5s-3.3 4.5.1 6.6c.4-.1.8-.1 1-.3 4.6-5.5 5.5-5.6 10.7-1.7s6.3 6.7 1.8 11.8-3.8 11-1.3 16.5a93.2 93.2 0 0 0 8.6 14.6c1 1.4 3.9 2.1 5.8 2 4-.3 6 1.1 6.4 5 .6 5.6.5 11.1-3.6 15.6s-7.9 4.9-11.4.5c-6.2-7.8-11.6-16.1-17.2-24.3-1.5-2.3-2.4-5-4-8.2l-9 8c-4.6 3.8-11.8 1.6-12.9-4.1-.3-1.2.7-2.8 1.4-4 2.5-3.9 5.4-7.7 7.7-11.7.7-1.3.2-3.4.3-5.1-1.6.8-3.9 1.2-4.8 2.5a68.9 68.9 0 0 0-5.1 9.7c-3 6.2-4 6.6-10.7 5.3a16.5 16.5 0 0 0-4.9-.6c-5.8.9-7.4-2.6-8.7-7.3s-3.6-10.2-4.7-15.5c-.6-2.9.3-6.2.5-9.3zm-.9-21.1l18.7-15c-8.9-1-18.5 6.6-18.7 15zm7.8 16.2c10.3 5.6 11.7 5.3 15-2.2zM513.1 129.3c-.5 2.8-.6 5.6-1.4 8.3-1.4 5.6-4.2 7.4-10 7.7-16.1.6-32.3 2.1-48.4 1.7a167.5 167.5 0 0 0-37.4 3.4 12 12 0 0 1-6.8-.5c-9.1-4.5-18.2-3.7-27.5-.9s-9.7 1.4-12-6.7l-.3-1c-2.3-9.5-.2-12.4 9.4-12.8 5.5-.2 11-.1 16.5-.2a70.1 70.1 0 0 0 8-.5c12.1-1.9 17.5-12.2 13-23.7a47.4 47.4 0 0 1-2.8-14.9c-.3-8.4-4.4-13.5-12.6-14.7a15.8 15.8 0 0 1-6-2c-6-3.2-6.2-11.3-.7-15.4.5-.4 1.3-.6 1.7-1.1 10.1-11.7 22.4-10.1 35.3-6a9.5 9.5 0 0 0 3.4.2c5.2-.6 10.4-1.1 15.6-2.1 2.6-.5 5.6-1.4 7.5-3.1 5.8-5 12.6-4.2 17.2 2.3a42.6 42.6 0 0 0 5.3 6.6c4.8 4.6 4.6 16.2-.7 20.3l-13.3 10.3c-7.7 5.9-8.8 21.1-2.1 28.6a5.5 5.5 0 0 0 2.5 1.3c6.4 1.5 12.8 3.1 19.3 4.4 2.1.4 4.7 1 6.3.1 6.5-3.9 12.4-.8 17.9 1.7 2.1 1 2.6 5.3 3.9 8.2zM571.7 30.2v-1.5c-.5-10 .6-11.6 10.4-13.8 1.3-.4 3.3.8 4.7 1.8 3.6 2.5 5.5 2.1 7.2-2 .7-1.8.8-3.9 1.6-5.7s2.4-6.7 4-6.9c3.4-.4 7.1 1.3 10.6 2.3a2.6 2.6 0 0 1 1.6 1.8c1.3 7.7 6.3 7.3 12.1 6.1a69.1 69.1 0 0 1 14.3-1.8 9.7 9.7 0 0 1 6.7 3 22 22 0 0 1 6.3 15.8 9.9 9.9 0 0 1-.3 3c-2.3 5.9-4.8 11.8-7 17.8a32.8 32.8 0 0 0-1.4 5.6c-.4 2.3 0 4.9-1 6.8-3.2 5.7-.3 9.9 3 14a6.5 6.5 0 0 0 4.3 1.8 52 52 0 0 0 10.4.7c9.1-.5 14.8 4.4 19.4 11.2 3 4.4.4 13.1-4.8 14.9s-12 3.8-18.1 5.5c-3 .8-6.4 1.1-7.6-2.5s-.8-7.1 3.8-8.9 5.7-3.8 8.8-5.9c-6.9-3.3-13.3-1-19.6-.7-3.8.2-7.7.5-11.3-.3-14.3-3.2-28.2.1-42.3 1.4-6.2.5-12.5 1.7-18.7 2.5-4.1.6-7.8-.2-10.2-3.7-.9-1.2-1.4-4.3-.7-4.8 5.5-4.3 3.6-10.6 4.7-16a6.8 6.8 0 0 0-1.3-4.9l-1.5 3.2c-2.2 5.5-4.9 6-8.4 1.2-2.3-3.1-3.7-6.7-5.5-10.1s-4.2-7.5-6-11.4a18.2 18.2 0 0 1-1.4-7c.1-3.4 2.5-4.3 5.6-3.7 7.7 1.5 11.1 4.8 12.4 12.4a20.9 20.9 0 0 0 1.8 5.7c1.1-6.1 1.3-12-1.1-17.9-1.3-3.1-5.3-5.8-1.9-9.8s10.5-3.2 14.6-.8l2 1.4c.7 3.4 1.3 6.8 2.2 11.4l7.4-7zm16 49.9c6.5 0 12.5-.2 18.4 0s10.8-3 14.6-8.4l-8.2-3.5-1.2 1.5c-4.5 8.3-4.8 8.4-13.1 3.8-3.7-2.2-8.6.5-10.5 6.6zm47.7-54c-2.6-1.1-3.8-2.2-4.7-2a32.8 32.8 0 0 0-7.5 2.4c-4.5 2.3-8.8 4.3-13.2 0a2.8 2.8 0 0 0-2.2-.2c-.4.1-.8 1.5-.7 1.6 2.8 2.1 5.3 5.1 8.4 5.8s6.9-.3 10.1-1.4 5.7-3.5 9.8-6.2zm-23.5 32.2c4 0 7.1.2 10.1-.1a3.7 3.7 0 0 0 2.6-2.3 4.2 4.2 0 0 0-.6-3.5c-.9-.9-2.6-1-3.2-1.2zm-35.5-1.4v7.8l6.8-4.1zm1.2 18.8l-1.4.4c.2 1.8-.2 4.5.8 5.4s3.7.2 6.9.2zM702.2 46.6c13.8-8.2 19.3-6.7 20.8 6.8 2.8-2.1 5.5-3.5 7.5-5.7 3.9-4.1 7.5-8.5 11-12.9.6-.9.9-2.8.3-3.5a6.2 6.2 0 0 0-3.8-1.8c-.8-.2-1.8.7-2.7 1l-6.4 2.1c.1-3.7-1.2-9.4.7-10.7 6.7-4.9 14.6-8.3 23.2-6.8s9.6 7.4 6 14.4-6.2 12.1-9.2 18.3a4.9 4.9 0 0 0-.5 3.5c1.4 3 3.2 5.9 4.9 8.8 5.2-3.5 7.7-10.3 6.2-17.5-.9-4.3 2.5-9.2 6.8-9 1.8.2 3.8 2 5.1 3.6s1 3 1.6 5.5c4.9-3.1 9.6-5.8 13.9-9 1.2-.9 1.7-3.3 1.9-5.1s-.5-3.7-.3-5.5c1.6-10.2 5.2-10.6 14.2-6.4a5 5 0 0 1 2.1 4c-.4 5.8 3.2 8 7.8 9.5l6.7 2c5.5 1.2 8.3 3.9 7.4 9.3S824 52.1 822 57.3a3.7 3.7 0 0 1-2.2 1.8c-4.3 1.6-8.8 2.8-13.1 4.5s-5.3-.2-4.2-3.3a20.6 20.6 0 0 1 5.7-8c2.7-2.3 6.2-3.7 10.7-6.1-2.6-.9-4.1-1.9-5.1-1.6-5.8 2.1-12.2 3-15.4 9.7a28.6 28.6 0 0 1-7.4 9.8c-2 1.7-5.5 2.2-8.3 2.1-4.7-.2-6-2.7-4.8-7.3a31 31 0 0 0 .4-3.6c-8.6 3.1-9.5 13.4-17.7 15.1l2.1 6.1c11.1-3.1 22-6.4 33.1-9.3 7.7-2.1 12.1 1.8 11 9.7-.2 1.5-1.6 3-2.7 4.2-11.5 12.3-29 9.2-42.1 17.3l-1.4-1.3 4.2-7.5-8.9-2.8c-3.3 5.6-9.2 8.9-16.5 9.6-1.8.2-5-.4-5.2-1.2-.4-2.4-.6-5.5.6-7.5s4.7-6.2 7.3-9 2.2-4.3-.2-6-4.9-7-9.4-2.6a6.5 6.5 0 0 0-1.7 3.3c-.8 4.4-1.8 8.9-1.8 13.3 0 6.9.8 13.9 1.3 20.8s1.1 11.7-3 17.5c-2.6 3.6-1.9 9.6-2.3 14.6-.6 7.5-.6 15-1.4 22.4-.5 5.8-8.2 10.1-13.6 8a4.2 4.2 0 0 1-2.2-2.5 17.4 17.4 0 0 1-1-5.9c.9-13.7 1.9-27.4 2.9-41.1a10.1 10.1 0 0 0 .2-3c-1.1-7.1-2.5-14.2-3.5-21.3-.5-3.7-1.4-7.9-.3-11.3 4-12.5-.1-24-3.6-35.5-.2-.7-.3-1.3-.5-2z"/><path fill="#FFF" d="M756.4 116.9c-4.9.6-8.4 1.3-11.8 1.1s-7.1-1.1-7.3-2.1c-.4-3 0-7.4 1.9-9.2 4.9-4.4 10.6-7.3 18.1-7s13.7-2.1 20.4-3.9 16.1-5 24.1-7.5a24.8 24.8 0 0 0 3.9-2.1 8.5 8.5 0 0 1 12.9 5.9c.4 3-.4 4.9-3.8 6.5-5.7 2.7-10.8 6.6-16.3 10.1 6.5 8.9 5.2 17.4 2.5 26-2.1 6.6 4 20.8 10.4 25.5s13.1 3.5 19.8 1.1a6.3 6.3 0 0 0 2.8-3c1.1-1.9 1.4-4.2 2.7-5.9s3.8-4.2 4.9-3.8 5.4 3 5.9 5.1c1.3 5.1 1.3 10.5 1.4 15.8.1 1-1.4 2.7-2.5 3-8 2.1-16.3 5.9-24.1 5.3s-16.5-5.6-24.8-8.7c-3.8-9.2-8-18.2-11.1-27.6-.9-2.4 1.4-5.9 2.4-8.9 2-6-3.4-12.4-9.7-11-2.4.5-5.3 1.3-6.7 3-7 8.4-17.6 13.6-22.3 24.2-1.9 4.3-6.6 5.8-9.4 3.8s-5.1-9.6-2.4-12.8c4.7-5.6 9.5-11.1 14.1-16.7 1.2-1.5 2.1-3.3 4-6.2zM617.4 112.1l-7.5 1.6-12.5 2.9c-1.5.3-3.2.4-4.2 1.3-6.5 5.3-18.2 2.4-24-2.9-1.2-1.1-2.5-3.3-2.1-4.5a7 7 0 0 1 4.1-3.8l47.1-10.2a16.2 16.2 0 0 0 4.3-1.2 6.8 6.8 0 0 1 8.6 1.8A93.8 93.8 0 0 1 639 108a2.7 2.7 0 0 1-.1 2.6c-2.5 4-5.5 7.7-7.8 11.7-.6 1.2 0 4.1.9 4.7 3.1 2 6.6 3.2 9.9 4.6s7.2 3.3 6.1 8.3-4.6 5.2-8.5 5.2h-10.4c-.4 6.7-.5 13-1.3 19.2-1.3 11.1-8.6 17.6-18.2 21.9-4.1 1.9-8.3 1.3-12.3-1.5s-8.8-5.3-13-8.2a10.9 10.9 0 0 1-4.8-10.8c.3-3.6 2.2-4.4 5-3.1s7.4 3.7 11.1 5.7 8 4 11 .6 4.6-8.3 6.5-12.7c.4-.9-.2-2.2-.3-3.4-.5-8.8-.5-8.9-9.6-8.4s-20.6 1.3-30.9 1.9c-3.7.3-5.8-1.4-6.8-5.1-1.6-6 .3-8.2 6.4-7.5a22.1 22.1 0 0 0 5.7-.6l17.6-3.1c1.5-.3 4.1-.3 4.2-.9 1.6-6.3 8-5.9 11.7-9.1s4.7-4.4 7-6.6zM539.8 105.2c.7-8.5 1.2-17 2.1-25.4a5.2 5.2 0 0 1 3.2-3.7c4.3-1.4 8.2-.1 11.1 3.5s0 6.1-1.9 8.7c-3.6 4.8-3.1 19.2.9 23.9.7.8 1.5 2.4 1.2 2.9a103.7 103.7 0 0 1-8.1 10.7c-.3.3-3.8-.9-4.2-2-2.1-6-3.7-12.1-5.5-18.2zM311.9 31.4c-.2 2.8.6 6.2-4.1 7.9s-6.5.4-8.7-2.9-4.5-5.2-6.4-8a3.8 3.8 0 0 1-.4-3.4c2.2-4.8 8.1-7.9 12.5-6.8s7 5.1 7.1 11.2z"/></svg>