<?xml version="1.0" standalone="no"?><!DOCTYPE svg PUBLIC "-//W3C//DTD SVG 1.1//EN" "http://www.w3.org/Graphics/SVG/1.1/DTD/svg11.dtd"><svg t="1563124371345" class="icon" viewBox="0 0 1024 1024" version="1.1" xmlns="http://www.w3.org/2000/svg" p-id="6276" xmlns:xlink="http://www.w3.org/1999/xlink" width="400" height="400"><defs><style type="text/css"></style></defs><path d="M512 1006.933333C238.933333 1006.933333 17.066667 785.066667 17.066667 512 17.066667 238.933333 238.933333 17.066667 512 17.066667S1006.933333 238.933333 1006.933333 512c0 273.066667-221.866667 494.933333-494.933333 494.933333z m0-938.666666C268.8 68.266667 68.266667 268.8 68.266667 512S268.8 955.733333 512 955.733333 955.733333 755.2 955.733333 512 755.2 68.266667 512 68.266667z" p-id="6277"></path><path d="M768 725.333333H256v-42.666666c0-106.666667 85.333333-192 192-192h128c106.666667 0 192 85.333333 192 192v42.666666z m-256-234.666666c-64 0-115.2-51.2-115.2-115.2S448 256 512 256s115.2 51.2 115.2 115.2-51.2 119.466667-115.2 119.466667z" p-id="6278"></path></svg>